<?xml version="1.0" encoding="UTF-8" standalone="no"?><!DOCTYPE svg PUBLIC "-//W3C//DTD SVG 1.1//EN" "http://www.w3.org/Graphics/SVG/1.1/DTD/svg11.dtd"><svg width="100%" height="100%" viewBox="0 0 64 64" version="1.1" xmlns="http://www.w3.org/2000/svg" xmlns:xlink="http://www.w3.org/1999/xlink" xml:space="preserve" xmlns:serif="http://www.serif.com/" style="fill-rule:evenodd;clip-rule:evenodd;stroke-linecap:round;stroke-linejoin:round;stroke-miterlimit:1.5;"><rect x="10.625" y="6.3" width="42.75" height="51.4" style="fill:none;stroke:#000;stroke-width:4.17px;"/><g><circle cx="41.257" cy="17.838" r="5.257" style="fill:none;stroke:#000;stroke-width:4.17px;"/><path d="M39.103,22.635c-1.828,-0.824 -3.103,-2.662 -3.103,-4.797c0,-2.901 2.355,-5.256 5.257,-5.256c2.901,-0 5.256,2.355 5.256,5.256c0,2.135 -1.275,3.973 -3.103,4.797l0.62,-0l2.372,8.54l-10.402,0l2.336,-8.54l0.767,-0Z" style="fill:none;stroke:#000;stroke-width:4.17px;"/></g><path d="M18,23.175l12,0" style="fill:none;stroke:#000;stroke-width:4.17px;"/><path d="M18,31.175l12,0" style="fill:none;stroke:#000;stroke-width:4.17px;"/><path d="M18,15.175l12,0" style="fill:none;stroke:#000;stroke-width:4.17px;"/><path d="M18,39.175l27.034,0" style="fill:none;stroke:#000;stroke-width:4.17px;"/><path d="M18,47.675l28,0" style="fill:none;stroke:#000;stroke-width:4.17px;"/></svg>