<?xml version="1.0" encoding="UTF-8" standalone="no"?>
<!DOCTYPE svg PUBLIC "-//W3C//DTD SVG 1.1//EN" "http://www.w3.org/Graphics/SVG/1.1/DTD/svg11.dtd">
<svg width="100%" height="100%" viewBox="0 0 64 64" version="1.1" xmlns="http://www.w3.org/2000/svg" xmlns:xlink="http://www.w3.org/1999/xlink" xml:space="preserve" xmlns:serif="http://www.serif.com/" style="fill-rule:evenodd;clip-rule:evenodd;stroke-linecap:round;stroke-linejoin:round;stroke-miterlimit:1.5;">
    <g transform="matrix(1.36847,0,0,1.36847,-22.0119,-24.4113)">
        <path d="M42.442,21.732C44.056,23.803 44.453,26.086 43.631,28.581C45.369,29.153 46.97,30.077 48.335,31.296C50.085,29.338 52.26,28.539 54.861,28.902C56.107,30.458 57.11,32.195 57.835,34.052C56.848,36.486 55.069,37.971 52.498,38.506C52.871,40.298 52.871,42.146 52.498,43.938C55.069,44.473 56.848,45.958 57.835,48.392C57.11,50.249 56.107,51.986 54.861,53.542C52.26,53.905 50.085,53.106 48.335,51.148C46.97,52.367 45.369,53.291 43.631,53.863C44.453,56.358 44.056,58.641 42.442,60.712C40.471,61.013 38.466,61.013 36.495,60.712C34.881,58.641 34.484,56.358 35.306,53.863C33.568,53.291 31.967,52.367 30.602,51.148C28.853,53.106 26.677,53.905 24.076,53.542C22.83,51.986 21.828,50.249 21.103,48.392C22.09,45.958 23.869,44.473 26.44,43.938C26.066,42.146 26.066,40.298 26.44,38.506C23.869,37.971 22.09,36.486 21.103,34.052C21.828,32.195 22.83,30.458 24.076,28.902C26.677,28.539 28.853,29.338 30.602,31.296C31.967,30.077 33.568,29.153 35.306,28.581C34.484,26.086 34.881,23.803 36.495,21.732C38.466,21.431 40.471,21.431 42.442,21.732ZM39.469,34.361C43.255,34.361 46.329,37.435 46.329,41.222C46.329,45.009 43.255,48.083 39.469,48.083C35.682,48.083 32.608,45.009 32.608,41.222C32.608,37.435 35.682,34.361 39.469,34.361Z" style="fill:none;stroke:black;stroke-width:3.07px;"/>
    </g>
</svg>
