<?xml version="1.0" encoding="UTF-8" standalone="no"?><!DOCTYPE svg PUBLIC "-//W3C//DTD SVG 1.1//EN" "http://www.w3.org/Graphics/SVG/1.1/DTD/svg11.dtd"><svg width="100%" height="100%" viewBox="0 0 8000 4500" version="1.1" xmlns="http://www.w3.org/2000/svg" xmlns:xlink="http://www.w3.org/1999/xlink" xml:space="preserve" xmlns:serif="http://www.serif.com/" style="fill-rule:evenodd;clip-rule:evenodd;stroke-linecap:round;stroke-linejoin:round;stroke-miterlimit:1.5;"><path d="M7416.67,866.522l-0,1364.93c-0,56.23 -45.652,101.881 -101.881,101.881l-6379.57,0c-56.229,0 -101.881,-45.651 -101.881,-101.881l0,-1364.93c0,-56.23 45.652,-101.881 101.881,-101.881l6379.57,-0c56.229,-0 101.881,45.651 101.881,101.881Z" style="fill:#ebebeb;stroke:#000;stroke-width:8.33px;"/><g><path d="M3500,1610.24l0,612.846c0,60.845 -49.399,110.243 -110.244,110.243l-2196.18,0c-60.845,0 -110.244,-49.398 -110.244,-110.243l0,-612.846c0,-60.845 49.399,-110.244 110.244,-110.244l2196.18,0c60.845,0 110.244,49.399 110.244,110.244Z" style="fill:#ebebeb;stroke:#000;stroke-width:8.33px;"/><g transform="matrix(1,0,0,0.965517,0,18.9027)"><g transform="matrix(129.464,0,0,129.464,1484.01,1670.2)"></g><text x="1160.16px" y="1670.2px" style="font-family:'ArialMT', 'Arial';font-size:129.464px;">LAN1</text></g><g transform="matrix(1,0,0,0.965517,0,22.7011)"><g transform="matrix(103.571,0,0,103.571,1816.26,1780.36)"></g><text x="1159.98px" y="1780.36px" style="font-family:'ArialMT', 'Arial';font-size:103.571px;">Internal L2SW</text></g></g><g><circle cx="2583.33" cy="2125" r="41.667" style="fill:#e0afea;"/><circle cx="3250" cy="2125" r="41.667" style="fill:#e0afea;"/><path d="M2604.17,2125l645.833,0" style="fill:none;stroke:#e0afea;stroke-width:16.67px;"/></g><g><circle cx="3583.33" cy="2125" r="41.667" style="fill:#e8ae56;"/><circle cx="4250" cy="2125" r="41.667" style="fill:#e8ae56;"/><path d="M3604.17,2125l645.833,0" style="fill:none;stroke:#e8ae56;stroke-width:16.67px;"/></g><g><circle cx="1291.67" cy="2116.67" r="41.667" style="fill:#9ec2e2;stroke:#9ec2e2;stroke-width:4.17px;"/><circle cx="2250" cy="2116.67" r="41.667" style="fill:#9ec2e2;stroke:#9ec2e2;stroke-width:4.17px;"/><path d="M1291.67,2116.67l958.333,-0" style="fill:none;stroke:#9ec2e2;stroke-width:16.67px;"/></g><path d="M1500,2125l0,125l-125,0l0,500" style="fill:none;stroke:#9ec2e2;stroke-width:16.67px;"/><path d="M1375,2750l-208.333,0l-0,277.778" style="fill:none;stroke:#9ec2e2;stroke-width:16.67px;"/><g><path d="M1500,3193.73l0,362.544c0,14.936 -12.126,27.061 -27.061,27.061l-1029.21,0c-14.936,0 -27.061,-12.125 -27.061,-27.061l-0,-362.544c-0,-14.936 12.125,-27.061 27.061,-27.061l1029.21,-0c14.935,-0 27.061,12.125 27.061,27.061Z" style="fill:#ebebeb;stroke:#000;stroke-width:8.33px;"/><text x="458.333px" y="3318.7px" style="font-family:'ArialMT', 'Arial';font-size:125px;">Main machine</text><g transform="matrix(100,0,0,100,1416.08,3464.48)"></g><text x="456.217px" y="3464.48px" style="font-family:'ArialMT', 'Arial';font-size:100px;">Win1<tspan x="676.628px 732.243px " y="3464.48px 3464.48px ">1 </tspan>/ Ubuntu 24.04</text><g><rect x="1041.67" y="3027.78" width="250" height="138.889" style="fill:#ebebeb;stroke:#000;stroke-width:8.33px;"/><g transform="matrix(125,0,0,125,1274.3,3141.99)"></g><text x="1059.03px" y="3141.99px" style="font-family:'ArialMT', 'Arial';font-size:125px;">NIC</text></g></g><g><path d="M1727.69,3759.81l30.157,-30.157c64.704,64.703 169.61,64.703 234.314,-0l30.157,30.157c-81.359,81.359 -213.269,81.359 -294.628,-0Z" style="fill:#989898;stroke:#afafaf;stroke-width:4.17px;"/><path d="M1786.61,3700.89l25.875,-25.875c34.525,34.526 90.501,34.526 125.026,0l25.875,25.875c-48.815,48.816 -127.961,48.816 -176.776,0Z" style="fill:#989898;stroke:#afafaf;stroke-width:4.17px;"/><path d="M1845.54,3641.96l29.463,-29.463l29.463,29.463c-16.272,16.272 -42.654,16.272 -58.926,-0Z" style="fill:#989898;stroke:#afafaf;stroke-width:4.17px;"/></g><path d="M1875,3027.78l0,-194.445l-250,0l0,-708.333" style="fill:none;stroke:#9ec2e2;stroke-width:16.67px;"/><g><path d="M2083.33,3193.73l0,362.544c0,14.936 -12.125,27.061 -27.061,27.061l-362.544,0c-14.936,0 -27.061,-12.125 -27.061,-27.061l-0,-362.544c-0,-14.936 12.125,-27.061 27.061,-27.061l362.544,-0c14.936,-0 27.061,12.125 27.061,27.061Z" style="fill:#ebebeb;stroke:#000;stroke-width:8.33px;"/><g transform="matrix(125,0,0,125,1961.18,3419.74)"></g><text x="1794.43px" y="3419.74px" style="font-family:'ArialMT', 'Arial';font-size:125px;">AP</text><g><rect x="1750" y="3027.78" width="250" height="138.889" style="fill:#ebebeb;stroke:#000;stroke-width:8.33px;"/><g transform="matrix(125,0,0,125,1982.64,3141.99)"></g><text x="1767.37px" y="3141.99px" style="font-family:'ArialMT', 'Arial';font-size:125px;">NIC</text></g></g><g transform="matrix(4.16667,0,0,4.16667,-84.6029,602.913)"><text x="340px" y="330px" style="font-family:'ArialMT', 'Arial';font-size:24px;">vlan1.1</text><g transform="matrix(24,0,0,24,500.148,354.785)"></g><text x="340px" y="354.785px" style="font-family:'ArialMT', 'Arial';font-size:24px;">192.168.1.0/24</text></g><g transform="matrix(4.16667,0,0,4.16667,1307,603.841)"><text x="340px" y="330px" style="font-family:'ArialMT', 'Arial';font-size:24px;">vlan1.2 (DMZ)</text><g transform="matrix(24,0,0,24,513.496,354.785)"></g><text x="340px" y="354.785px" style="font-family:'ArialMT', 'Arial';font-size:24px;">192.168.10.0/24</text></g><g transform="matrix(4.16667,0,0,4.16667,2309.65,603.841)"><text x="340px" y="330px" style="font-family:'ArialMT', 'Arial';font-size:24px;">lan3 (Dev env)</text><g transform="matrix(24,0,0,24,526.844,354.785)"></g><text x="340px" y="354.785px" style="font-family:'ArialMT', 'Arial';font-size:24px;">192.168.100.0/24</text></g><g><path d="M6421.36,3014.09l0,1305.16c0,53.767 -43.652,97.42 -97.419,97.42l-3726.52,-0c-53.768,-0 -97.42,-43.653 -97.42,-97.42l0,-1305.16c0,-53.767 43.652,-97.419 97.42,-97.419l3726.52,-0c53.767,-0 97.419,43.652 97.419,97.419Z" style="fill:#ebebeb;stroke:#000;stroke-width:8.33px;"/><g transform="matrix(125,0,0,125,6296.18,3115.68)"></g><text x="4441.39px" y="3115.68px" style="font-family:'ArialMT', 'Arial';font-size:125px;">Proxmox VE Hypervisor (i3 9100)</text><g><path d="M6041.67,3764.35l-0,471.308c-0,19.416 -15.764,35.179 -35.18,35.179l-971.308,0c-19.416,0 -35.179,-15.763 -35.179,-35.179l0,-471.308c0,-19.416 15.763,-35.179 35.179,-35.179l971.308,-0c19.416,-0 35.18,15.763 35.18,35.179Z" style="fill:#ebebeb;stroke:#000;stroke-width:8.33px;"/><g transform="matrix(100,0,0,100,5983.09,3854.17)"></g><text x="5060.29px" y="3854.17px" style="font-family:'ArialMT', 'Arial';font-size:100px;">Ubuntu Server 24.04</text><g transform="matrix(4.16667,0,0,4.16667,2268.62,806.038)"><text x="670px" y="770px" style="font-family:'ArialMT', 'Arial';font-size:24px;">sshd: 22</text><g transform="matrix(24,0,0,24,854.113,794.785)"></g><text x="670px" y="794.785px" style="font-family:'ArialMT', 'Arial';font-size:24px;">meigens-api: 443</text></g></g><g><path d="M3750,3764.35l0,471.308c0,19.416 -15.763,35.179 -35.179,35.179l-971.308,0c-19.416,0 -35.18,-15.763 -35.18,-35.179l0,-471.308c0,-19.416 15.764,-35.179 35.18,-35.179l971.308,-0c19.416,-0 35.179,15.763 35.179,35.179Z" style="fill:#ebebeb;stroke:#000;stroke-width:8.33px;"/><g transform="matrix(100,0,0,100,3557.73,3854.17)"></g><text x="2768.62px" y="3854.17px" style="font-family:'ArialMT', 'Arial';font-size:100px;">Proxmox VE Host</text><g transform="matrix(4.16667,0,0,4.16667,-23.0469,806.038)"><text x="670px" y="770px" style="font-family:'ArialMT', 'Arial';font-size:24px;">sshd: 22</text><g transform="matrix(24,0,0,24,808.762,794.785)"></g><text x="670px" y="794.785px" style="font-family:'ArialMT', 'Arial';font-size:24px;">control: 8006</text></g></g><g><path d="M4891.57,3764.35l-0,471.308c-0,19.416 -15.764,35.179 -35.18,35.179l-971.308,0c-19.416,0 -35.179,-15.763 -35.179,-35.179l0,-471.308c0,-19.416 15.763,-35.179 35.179,-35.179l971.308,-0c19.416,-0 35.18,15.763 35.18,35.179Z" style="fill:#ebebeb;stroke:#000;stroke-width:8.33px;"/><g transform="matrix(100,0,0,100,4699.4,3854.17)"></g><text x="3910.19px" y="3854.17px" style="font-family:'ArialMT', 'Arial';font-size:100px;">CentOS Stream 9</text><g transform="matrix(4.16667,0,0,4.16667,1118.52,806.038)"><text x="670px" y="770px" style="font-family:'ArialMT', 'Arial';font-size:24px;">sshd: 22</text><text x="670px" y="794.785px" style="font-family:'ArialMT', 'Arial';font-size:24px;">nginx: 443</text><g transform="matrix(24,0,0,24,822.109,819.57)"></g><text x="670px" y="819.57px" style="font-family:'ArialMT', 'Arial';font-size:24px;">Purpur: 25565</text></g></g></g><g><path d="M1472.92,2958.33c-0,31.505 -25.579,57.084 -57.084,57.084l-173.333,-0c-31.505,-0 -57.083,-25.579 -57.083,-57.084c-0,-31.505 25.578,-57.083 57.083,-57.083l173.333,0c31.505,0 57.084,25.578 57.084,57.083Z" style="fill:#fff;stroke:#9ec2e2;stroke-width:16.67px;"/><g transform="matrix(75,0,0,75,1436.24,2985.18)"></g><text x="1223.73px" y="2985.18px" style="font-family:'ArialMT', 'Arial';font-size:75px;">DHCP</text></g><g><path d="M2179.17,2957.08c-0,31.505 -25.579,57.084 -57.084,57.084l-173.333,-0c-31.505,-0 -57.083,-25.579 -57.083,-57.084c-0,-31.505 25.578,-57.083 57.083,-57.083l173.333,0c31.505,0 57.084,25.578 57.084,57.083Z" style="fill:#fff;stroke:#9ec2e2;stroke-width:16.67px;"/><g transform="matrix(75,0,0,75,2142.49,2983.93)"></g><text x="1929.98px" y="2983.93px" style="font-family:'ArialMT', 'Arial';font-size:75px;">DHCP</text></g><g><path d="M3491.67,1221.13c-0,22.83 -18.535,41.365 -41.365,41.365l-58.937,0c-22.83,0 -41.365,-18.535 -41.365,-41.365c0,-22.83 18.535,-41.364 41.365,-41.364l58.937,-0c22.83,-0 41.365,18.534 41.365,41.364Z" style="fill:#fff;stroke:#9ec2e2;stroke-width:16.67px;"/><g transform="matrix(54.3478,0,0,54.3478,3443.31,1239.06)"></g><text x="3397.99px" y="1239.06px" style="font-family:'ArialMT', 'Arial';font-size:54.348px;">.1</text></g><g><path d="M3833.33,1221.13c0,22.83 -18.535,41.365 -41.364,41.365l-58.938,0c-22.829,0 -41.364,-18.535 -41.364,-41.365c-0,-22.83 18.535,-41.364 41.364,-41.364l58.938,-0c22.829,-0 41.364,18.534 41.364,41.364Z" style="fill:#fff;stroke:#e0afea;stroke-width:16.67px;"/><g transform="matrix(54.3478,0,0,54.3478,3784.98,1239.06)"></g><text x="3739.65px" y="1239.06px" style="font-family:'ArialMT', 'Arial';font-size:54.348px;">.1</text></g><g><path d="M4037.5,937.5c0,22.83 -18.535,41.365 -41.365,41.365l-167.27,-0c-22.83,-0 -41.365,-18.535 -41.365,-41.365c0,-22.83 18.535,-41.365 41.365,-41.365l167.27,0c22.83,0 41.365,18.535 41.365,41.365Z" style="fill:#fff;stroke:#1e629d;stroke-width:16.67px;"/><g transform="matrix(66.8765,0,0,66.8765,3990.41,964.548)"></g><text x="3834.32px" y="964.548px" style="font-family:'ArialMT', 'Arial';font-size:66.876px;">IPCP</text></g><g><path d="M4166.67,1221.13c-0,22.83 -18.535,41.365 -41.365,41.365l-58.937,0c-22.83,0 -41.365,-18.535 -41.365,-41.365c-0,-22.83 18.535,-41.364 41.365,-41.364l58.937,-0c22.83,-0 41.365,18.534 41.365,41.364Z" style="fill:#fff;stroke:#e8ae56;stroke-width:16.67px;"/><g transform="matrix(54.3478,0,0,54.3478,4118.31,1239.06)"></g><text x="4072.99px" y="1239.06px" style="font-family:'ArialMT', 'Arial';font-size:54.348px;">.1</text></g><g><g><path d="M2981.25,3552.92c0,31.505 -25.578,57.083 -57.083,57.083l-173.334,0c-31.505,0 -57.083,-25.578 -57.083,-57.083c0,-31.505 25.578,-57.084 57.083,-57.084l173.334,0c31.505,0 57.083,25.579 57.083,57.084Z" style="fill:#fff;stroke:#e0afea;stroke-width:16.67px;"/><g transform="matrix(75,0,0,75,2905.67,3579.17)"></g><text x="2759.7px" y="3579.17px" style="font-family:'ArialMT', 'Arial';font-size:75px;">.100</text></g></g><g><g><path d="M4391.67,3552.92c-0,31.505 -25.579,57.083 -57.084,57.083l-173.333,0c-31.505,0 -57.083,-25.578 -57.083,-57.083c-0,-31.505 25.578,-57.084 57.083,-57.084l173.333,0c31.505,0 57.084,25.579 57.084,57.084Z" style="fill:#fff;stroke:#e0afea;stroke-width:16.67px;"/><g transform="matrix(75,0,0,75,4303.7,3579.41)"></g><text x="4199.44px" y="3579.41px" style="font-family:'ArialMT', 'Arial';font-size:75px;">.10</text></g></g><g><g><path d="M5518.75,3552.92c0,31.505 -25.578,57.083 -57.083,57.083l-173.334,0c-31.505,0 -57.083,-25.578 -57.083,-57.083c0,-31.505 25.578,-57.084 57.083,-57.084l173.334,0c31.505,0 57.083,25.579 57.083,57.084Z" style="fill:#fff;stroke:#e8ae57;stroke-width:16.67px;"/><g transform="matrix(75,0,0,75,5430.78,3579.41)"></g><text x="5326.52px" y="3579.41px" style="font-family:'ArialMT', 'Arial';font-size:75px;">.10</text></g></g><g transform="matrix(158.333,0,0,158.333,2299.24,947.135)"></g><text x="941.04px" y="947.135px" style="font-family:'ArialMT', 'Arial';font-size:158.333px;">Y<tspan x="1034.9px 1140.5px " y="947.135px 947.135px ">AM</tspan>AHA<tspan x="1589.22px 1633.21px 1744.69px 1841.41px " y="947.135px 947.135px 947.135px 947.135px "> RTX</tspan>1210</text><path d="M2750,2125l0,83.333l125,0l0,875" style="fill:none;stroke:#e0afea;stroke-width:16.67px;"/><g><rect x="2708.33" y="2777.78" width="333.333" height="138.889" style="fill:#ebebeb;stroke:#000;stroke-width:8.33px;"/><g transform="matrix(125,0,0,125,3017.4,2891.99)"></g><text x="2732.61px" y="2891.99px" style="font-family:'ArialMT', 'Arial';font-size:125px;">NIC1</text></g><g><g><rect x="1250" y="2333.33" width="250" height="138.889" style="fill:#9ec2e2;stroke:#000;stroke-width:8.33px;"/><g transform="matrix(100,0,0,100,1486.21,2438.59)"></g><text x="1263.79px" y="2438.59px" style="font-family:'ArialMT', 'Arial';font-size:100px;">1.1.1</text></g><g><rect x="2250" y="2333.33" width="250" height="138.889" style="fill:#9ec2e2;stroke:#000;stroke-width:8.33px;"/><g transform="matrix(100,0,0,100,2486.21,2438.59)"></g><text x="2263.79px" y="2438.59px" style="font-family:'ArialMT', 'Arial';font-size:100px;">1.1.5</text></g><g><rect x="1500" y="2333.33" width="250" height="138.889" style="fill:#9ec2e2;stroke:#000;stroke-width:8.33px;"/><g transform="matrix(100,0,0,100,1736.21,2438.59)"></g><text x="1513.79px" y="2438.59px" style="font-family:'ArialMT', 'Arial';font-size:100px;">1.1.2</text></g><g><rect x="2500" y="2333.33" width="250" height="138.889" style="fill:#9ec2e2;stroke:#000;stroke-width:8.33px;"/><g transform="matrix(100,0,0,100,2736.21,2438.59)"></g><text x="2513.79px" y="2438.59px" style="font-family:'ArialMT', 'Arial';font-size:100px;">1.1.6</text></g><g><rect x="1750" y="2333.33" width="250" height="138.889" style="fill:#9ec2e2;stroke:#000;stroke-width:8.33px;"/><g transform="matrix(100,0,0,100,1986.21,2438.59)"></g><text x="1763.79px" y="2438.59px" style="font-family:'ArialMT', 'Arial';font-size:100px;">1.1.3</text></g><g><rect x="2750" y="2333.33" width="250" height="138.889" style="fill:#e0afea;stroke:#000;stroke-width:8.33px;"/><g transform="matrix(100,0,0,100,2986.21,2438.59)"></g><text x="2763.79px" y="2438.59px" style="font-family:'ArialMT', 'Arial';font-size:100px;">1.2.2</text></g><g><rect x="2000" y="2333.33" width="250" height="138.889" style="fill:#9ec2e2;stroke:#000;stroke-width:8.33px;"/><g transform="matrix(100,0,0,100,2236.21,2438.59)"></g><text x="2013.79px" y="2438.59px" style="font-family:'ArialMT', 'Arial';font-size:100px;">1.1.4</text></g><g><rect x="3000" y="2333.33" width="250" height="138.889" style="fill:#e0afea;stroke:#000;stroke-width:8.33px;"/><g transform="matrix(100,0,0,100,3236.21,2438.59)"></g><text x="3013.79px" y="2438.59px" style="font-family:'ArialMT', 'Arial';font-size:100px;">1.2.2</text></g></g><path d="M3750,2125l0,416.667l-250,-0l0,541.666" style="fill:none;stroke:#e8ae56;stroke-width:16.67px;"/><g><rect x="3333.33" y="2777.78" width="333.333" height="138.889" style="fill:#ebebeb;stroke:#000;stroke-width:8.33px;"/><g transform="matrix(125,0,0,125,3642.4,2891.99)"></g><text x="3357.61px" y="2891.99px" style="font-family:'ArialMT', 'Arial';font-size:125px;">NIC2</text></g><g><rect x="3625" y="2333.33" width="250" height="138.889" style="fill:#e8ae57;stroke:#000;stroke-width:8.33px;"/><g transform="matrix(100,0,0,100,3777.81,2438.59)"></g><text x="3722.19px" y="2438.59px" style="font-family:'ArialMT', 'Arial';font-size:100px;">3</text></g><path d="M3000,3625l0,-291.667" style="fill:none;stroke:#e0afea;stroke-width:16.67px;"/><path d="M4083.33,3625l0,-125l-916.666,0l-0,-166.667" style="fill:none;stroke:#e0afea;stroke-width:16.67px;"/><g><path d="M3291.67,3099.57l-0,217.527c-0,8.961 -7.276,16.236 -16.237,16.236l-550.86,0c-8.961,0 -16.237,-7.275 -16.237,-16.236l0,-217.527c0,-8.961 7.276,-16.237 16.237,-16.237l550.86,0c8.961,0 16.237,7.276 16.237,16.237Z" style="fill:#ebebeb;stroke:#000;stroke-width:8.33px;"/><g transform="matrix(100,0,0,100,3154.38,3239.47)"></g><text x="2832.06px" y="3239.47px" style="font-family:'ArialMT', 'Arial';font-size:100px;">vL2SW</text></g><g><rect x="2875" y="3625" width="250" height="104.167" style="fill:#ebebeb;stroke:#000;stroke-width:8.33px;"/><g transform="matrix(100,0,0,100,3088.92,3712.9)"></g><text x="2911.08px" y="3712.9px" style="font-family:'ArialMT', 'Arial';font-size:100px;">vnic</text></g><g><rect x="3958.33" y="3625" width="250" height="104.167" style="fill:#ebebeb;stroke:#000;stroke-width:8.33px;"/><g transform="matrix(100,0,0,100,4172.25,3712.9)"></g><text x="3994.42px" y="3712.9px" style="font-family:'ArialMT', 'Arial';font-size:100px;">vnic</text></g><path d="M3875,3333.33l0,83.334l1333.33,-0l0,208.333" style="fill:none;stroke:#e8ae57;stroke-width:16.67px;"/><g><rect x="5083.33" y="3625" width="250" height="104.167" style="fill:#ebebeb;stroke:#000;stroke-width:8.33px;"/><g transform="matrix(100,0,0,100,5297.25,3712.9)"></g><text x="5119.42px" y="3712.9px" style="font-family:'ArialMT', 'Arial';font-size:100px;">vnic</text></g><g><path d="M4000,3099.57l0,217.527c0,8.961 -7.275,16.236 -16.237,16.236l-550.86,0c-8.961,0 -16.236,-7.275 -16.236,-16.236l-0,-217.527c-0,-8.961 7.275,-16.237 16.236,-16.237l550.86,0c8.962,0 16.237,7.276 16.237,16.237Z" style="fill:#ebebeb;stroke:#000;stroke-width:8.33px;"/><g transform="matrix(100,0,0,100,3862.71,3239.47)"></g><text x="3540.4px" y="3239.47px" style="font-family:'ArialMT', 'Arial';font-size:100px;">vL2SW</text></g><path d="M4399.79,452.141l-625,-0l-3.957,547.859" style="fill:none;stroke:#1e629d;stroke-width:16.67px;"/><g><rect x="3566.46" y="625.752" width="416.667" height="138.889" style="fill:#ebebeb;stroke:#000;stroke-width:8.33px;"/><g transform="matrix(125,0,0,125,3809.55,739.966)"></g><text x="3740.03px" y="739.966px" style="font-family:'ArialMT', 'Arial';font-size:125px;">2</text></g><path d="M5233.12,452.141l848.479,-0" style="fill:none;stroke:#1e629d;stroke-width:16.67px;"/><g><path d="M5233.12,346.074l-0,212.133c-0,44.944 -36.49,81.434 -81.434,81.434l-670.466,-0c-44.945,-0 -81.434,-36.49 -81.434,-81.434l0,-212.133c0,-44.944 36.489,-81.433 81.434,-81.433l670.466,-0c44.944,-0 81.434,36.489 81.434,81.433Z" style="fill:#ebebeb;stroke:#000;stroke-width:8.33px;"/><g transform="matrix(1,0,0,0.98352,2.27374e-13,-1.00815)"><g transform="matrix(174.506,0,0,174.506,5013.16,522.159)"></g><text x="4625.38px" y="522.159px" style="font-family:'ArialMT', 'Arial';font-size:174.506px;">ONU</text></g></g><path d="M6270.67,618.349c-64.363,5.987 -205.456,-55.621 -187.5,-187.5c10.478,-76.954 112.476,-142.209 166.666,-104.166c-31.37,-90.299 -18.086,-200.453 41.667,-229.167c59.754,-28.714 201.362,-41.983 291.667,62.5c32.961,-66.638 127.623,-110.041 198.62,-83.333c70.998,26.707 112.161,103.85 113.88,145.833c52.691,-50.86 109.821,-127.437 229.166,-104.167c119.346,23.27 178.693,95.252 145.834,166.667c82.738,24.083 149.764,54.795 145.833,125c-3.931,70.205 -70.377,150.465 -155.027,145.833c-24.576,49.982 -76.265,113.344 -178.306,145.834c-102.042,32.489 -270.828,-29.248 -312.5,-98.959c-64.428,73.194 -124.832,81.246 -229.167,98.959c-127.578,21.658 -213.352,-6.057 -270.833,-83.334Z" style="fill:#ebebeb;stroke:#000;stroke-width:8.33px;"/><g transform="matrix(174.506,0,0,174.506,6980.28,471.451)"></g><text x="6388.51px" y="471.451px" style="font-family:'ArialMT', 'Arial';font-size:174.506px;">Internet</text><path d="M4708.33,916.667l0,1208.33" style="fill:none;stroke:#000;stroke-width:8.33px;"/><g transform="matrix(4.16667,0,0,4.16667,10.3954,-38.4288)"><g transform="matrix(1,0,0,1.01,0,-2.45)"><text x="1160px" y="245px" style="font-family:'CascadiaMonoRoman-Regular', 'Cascadia Mono';font-size:27.921px;">NAT descriptor</text></g><g transform="matrix(1,0,0,1.01,0,-2.76)"><text x="1192.72px" y="276px" style="font-family:'CascadiaMonoRoman-Regular', 'Cascadia Mono';font-size:27.921px;">192.168.10.10 tcp 443</text></g><g transform="matrix(1,0,0,1.01,0,-3.07)"><text x="1192.72px" y="307px" style="font-family:'CascadiaMonoRoman-Regular', 'Cascadia Mono';font-size:27.921px;">192.168.10.10 tcp ***=22</text></g><g transform="matrix(1,0,0,1.01,0,-3.38)"><text x="1192.72px" y="338px" style="font-family:'CascadiaMonoRoman-Regular', 'Cascadia Mono';font-size:27.921px;">192.168.10.10 tcp ***=25565</text></g><g transform="matrix(1,0,0,1.01,0,-3.69)"><text x="1192.72px" y="369px" style="font-family:'CascadiaMonoRoman-Regular', 'Cascadia Mono';font-size:27.921px;">192.168.10.100 tcp ***=22</text></g><g transform="matrix(1,0,0,1.01,0,-4)"><text x="1160px" y="400px" style="font-family:'CascadiaMonoRoman-Regular', 'Cascadia Mono';font-size:27.921px;">Filtering</text></g><g transform="matrix(1,0,0,1.01,0,-4.31)"><g transform="matrix(27.9209,0,0,27.9209,1503.56,431)"></g><text x="1192.72px" y="431px" style="font-family:'CascadiaMonoRoman-Regular', 'Cascadia Mono';font-size:27.921px;">pass vlan1.1 -&gt; any</text></g></g><path d="M3333.33,1166.67l0,83.333l-1250,0l0,862.5" style="fill:none;stroke:#9ec2e2;stroke-width:16.67px;"/><path d="M2666.67,2125l-0,-791.667l1000,0l-0,-166.666" style="fill:none;stroke:#e0afea;stroke-width:16.67px;"/><path d="M3666.67,2125l-0,-708.333l333.333,-0l0,-250" style="fill:none;stroke:#e8ae56;stroke-width:16.67px;"/><g><path d="M4399.79,1083.33c0,45.993 -37.34,83.334 -83.333,83.334l-1083.33,-0c-45.993,-0 -83.334,-37.341 -83.334,-83.334c0,-45.993 37.341,-83.333 83.334,-83.333l1083.33,-0c45.993,-0 83.333,37.34 83.333,83.333Z" style="fill:#ebebeb;stroke:#000;stroke-width:8.33px;"/><g transform="matrix(116.337,0,0,116.337,3857.73,1126.36)"></g><text x="3612.1px" y="1126.36px" style="font-family:'ArialMT', 'Arial';font-size:116.337px;">CPU</text></g></svg>