<?xml version="1.0" encoding="UTF-8" standalone="no"?><!DOCTYPE svg PUBLIC "-//W3C//DTD SVG 1.1//EN" "http://www.w3.org/Graphics/SVG/1.1/DTD/svg11.dtd"><svg width="100%" height="100%" viewBox="0 0 64 64" version="1.1" xmlns="http://www.w3.org/2000/svg" xmlns:xlink="http://www.w3.org/1999/xlink" xml:space="preserve" xmlns:serif="http://www.serif.com/" style="fill-rule:evenodd;clip-rule:evenodd;stroke-linecap:round;stroke-linejoin:round;stroke-miterlimit:1.5;"><path d="M57.573,45.965l-0,6.07c-0,1.675 -1.36,3.034 -3.035,3.034l-45.076,0c-1.675,0 -3.035,-1.359 -3.035,-3.034l0,-6.07c0,-1.675 1.36,-3.034 3.035,-3.034l45.076,-0c1.675,-0 3.035,1.359 3.035,3.034Z" style="fill:none;stroke:#000;stroke-width:3.96px;"/><path d="M57.573,28.965l-0,6.07c-0,1.675 -1.36,3.034 -3.035,3.034l-45.076,0c-1.675,0 -3.035,-1.359 -3.035,-3.034l0,-6.07c0,-1.675 1.36,-3.034 3.035,-3.034l45.076,-0c1.675,-0 3.035,1.359 3.035,3.034Z" style="fill:none;stroke:#000;stroke-width:3.96px;"/><path d="M57.573,11.965l-0,6.07c-0,1.675 -1.36,3.034 -3.035,3.034l-45.076,0c-1.675,0 -3.035,-1.359 -3.035,-3.034l0,-6.07c0,-1.675 1.36,-3.034 3.035,-3.034l45.076,-0c1.675,-0 3.035,1.359 3.035,3.034Z" style="fill:none;stroke:#000;stroke-width:3.96px;"/><circle cx="49.465" cy="49" r="2.465" style="fill:none;stroke:#000;stroke-width:2.86px;"/><circle cx="49.465" cy="32" r="2.465" style="fill:none;stroke:#000;stroke-width:2.86px;"/><circle cx="49.465" cy="15" r="2.465" style="fill:none;stroke:#000;stroke-width:2.86px;"/><path d="M14,49l24,0" style="fill:none;stroke:#000;stroke-width:2.86px;"/><path d="M14,32l24,0" style="fill:none;stroke:#000;stroke-width:2.86px;"/><path d="M14,15l24,0" style="fill:none;stroke:#000;stroke-width:2.86px;"/></svg>